Coordinates
version=1
nRows=8
nColumns=63
inDegrees=yes

Units are S.I. units (second, meters, Newtons, ...)
If the header above contains a line with 'inDegrees', this indicates whether rotational values are in degrees (yes) or radians (no).

endheader
time	pelvis_tilt	pelvis_list	pelvis_rotation	pelvis_tx	pelvis_ty	pelvis_tz	hip_flexion_r	hip_adduction_r	hip_rotation_r	knee_angle_r	knee_angle_r_beta	ankle_angle_r	subtalar_angle_r	mtp_angle_r	hip_flexion_l	hip_adduction_l	hip_rotation_l	knee_angle_l	knee_angle_l_beta	ankle_angle_l	subtalar_angle_l	mtp_angle_l	L5_S1_Flex_Ext	L5_S1_Lat_Bending	L5_S1_axial_rotation	L4_L5_Flex_Ext	L4_L5_Lat_Bending	L4_L5_axial_rotation	L3_L4_Flex_Ext	L3_L4_Lat_Bending	L3_L4_axial_rotation	L2_L3_Flex_Ext	L2_L3_Lat_Bending	L2_L3_axial_rotation	L1_L2_Flex_Ext	L1_L2_Lat_Bending	L1_L2_axial_rotation	L1_T12_Flex_Ext	L1_T12_Lat_Bending	L1_T12_axial_rotation	Abs_r3	Abs_r2	Abs_r1	Abs_t1	Abs_t2	neck_flexion	neck_bending	neck_rotation	arm_flex_r	arm_add_r	arm_rot_r	elbow_flex_r	pro_sup_r	wrist_flex_r	wrist_dev_r	arm_flex_l	arm_add_l	arm_rot_l	elbow_flex_l	pro_sup_l	wrist_flex_l	wrist_dev_l
      0.00000000	     -1.47877749	     -5.52511522	     77.41605433	      0.25910825	      0.46637575	      0.85512710	     -7.28127556	      3.45541098	      5.18981183	      1.27461514	      0.02224623	     15.86006978	     -8.56818191	      0.00000000	     -5.55219389	     -2.30150925	     -4.94727285	      5.70210659	      0.09952053	     24.57279802	      9.42580704	      0.00000000	     -0.21765450	      0.33262085	     -0.82866773	     -0.40420617	      0.44238573	     -0.88045946	     -0.35758458	      0.80873434	     -0.88045946	     -0.24875733	      0.80873434	     -0.72508426	     -0.20211397	      0.67828044	     -0.67329253	     -0.12436778	      0.51522970	     -0.62150080	     -1.55468433	      3.76267358	     -4.60880131	      0.00000000	      0.00000000	      2.81090398	     -1.22453499	     -1.10031442	    -28.70178818	    -88.05468697	    -35.57527145	      6.36139297	     71.36877434	     -4.80614249	      9.79681314	   -123.93783125	    -85.61679153	     43.48861843	      1.34861319	     65.46030843	    -10.08785459	      7.52106910
      0.01694915	     -1.58037444	     -5.46252083	     77.03398350	      0.25973992	      0.46655158	      0.85440465	     -7.37512666	      3.23901960	      5.24362232	      1.28609029	      0.02244651	     15.96830178	     -8.50156875	      0.00000000	     -5.70928938	     -2.10674631	     -5.35072955	      5.59451331	      0.09764268	     24.80442709	      9.36020090	      0.00000000	     -0.21837158	      0.30985854	     -0.76069731	     -0.40553786	      0.41211186	     -0.80824089	     -0.35876266	      0.75339005	     -0.80824089	     -0.24957688	      0.75339005	     -0.66561014	     -0.20277985	      0.63186353	     -0.61806656	     -0.12477752	      0.47997088	     -0.57052298	     -1.55980634	      3.50518177	     -4.23077021	      0.00000000	      0.00000000	      2.85917541	     -0.82492577	     -1.53135829	    -28.98875828	    -87.98118845	    -35.25202263	      6.97329202	     71.56371741	     -4.28247914	      9.39614913	   -124.00160759	    -85.34491883	     43.43730715	      1.22658996	     65.54611306	    -10.07022666	      6.85435733
      0.03389831	     -1.71880362	     -5.38490099	     76.47171587	      0.26093223	      0.46672967	      0.85409404	     -7.42688969	      2.99377768	      5.73695829	      1.32793319	      0.02317681	     15.98953279	     -8.67278801	      0.00000000	     -5.84463966	     -1.95597140	     -7.38138597	      5.59905624	      0.09772197	     25.18864431	     11.27104949	      0.00000000	     -0.21964593	      0.28117086	     -0.66189025	     -0.40790446	      0.37395724	     -0.70325839	     -0.36085630	      0.68363883	     -0.70325839	     -0.25103334	      0.68363883	     -0.57915397	     -0.20396321	      0.57336362	     -0.53778583	     -0.12550569	      0.43553366	     -0.49641769	     -1.56890893	      3.18066100	     -3.68123500	      0.00000000	      0.00000000	      2.83606939	     -0.49590002	     -1.77489186	    -30.33431218	    -87.91401064	    -33.59198453	      7.10750969	     69.75678609	     -3.96659639	      8.91532330	   -125.83650558	    -85.17061287	     41.56365762	      1.18784416	     65.87093496	    -10.15022042	      6.15965286
      0.05084746	     -1.75421735	     -5.32493881	     76.43520087	      0.26112602	      0.46688615	      0.85373861	     -7.48971351	      2.90054247	      4.77856633	      1.36624667	      0.02384550	     16.31289340	     -7.32239771	      0.00000000	     -5.92120716	     -1.87473751	     -7.36781513	      5.56824339	      0.09718418	     25.27845157	     11.09646234	      0.00000000	     -0.22193136	      0.27239609	     -0.66620089	     -0.41214872	      0.36228679	     -0.70783845	     -0.36461102	      0.66230384	     -0.70783845	     -0.25364535	      0.66230384	     -0.58292578	     -0.20608546	      0.55547010	     -0.54128823	     -0.12681158	      0.42194154	     -0.49965067	     -1.58523348	      3.08139900	     -3.70520952	      0.00000000	      0.00000000	      2.77342642	     -0.35038669	     -1.85351165	    -30.95185138	    -87.86707497	    -32.98644506	      7.08895634	     68.74581978	     -3.92691449	      8.80438356	   -126.61490007	    -85.08807767	     42.07986722	      1.15658203	     65.04147675	    -10.16149128	      5.78133811
      0.06779661	     -1.99261825	     -5.19148763	     76.14171209	      0.26180549	      0.46698906	      0.85376138	     -7.55472296	      2.59389810	      5.36863243	      1.38472556	      0.02416802	     16.25283624	     -7.89369615	      0.00000000	     -6.03952634	     -1.58683755	     -8.17981810	      5.55288485	      0.09691612	     25.31718825	     11.75771611	      0.00000000	     -0.22895362	      0.23616909	     -0.60138291	     -0.42518976	      0.31410490	     -0.63896934	     -0.37614790	      0.57422154	     -0.63896934	     -0.26167109	      0.57422154	     -0.52621005	     -0.21260633	      0.48159602	     -0.48862362	     -0.13082410	      0.36582593	     -0.45103718	     -1.63539279	      2.67159203	     -3.34471134	      0.00000000	      0.00000000	      2.74056695	     -0.21713997	     -1.92881292	    -30.59698441	    -87.58186722	    -33.90807392	      6.70154509	     71.21653227	     -3.82000340	      8.46052846	   -130.40875847	    -85.12896045	     35.89105769	      1.22847717	     67.91880189	    -10.40274132	      5.07699320
      0.08474576	     -2.04497456	     -5.15426487	     76.12144937	      0.26168542	      0.46701681	      0.85372754	     -7.56521656	      2.50542304	      5.37493002	      1.39891351	      0.02441565	     16.22428223	     -7.87248662	      0.00000000	     -6.05820607	     -1.49389369	     -8.24751813	      5.55826780	      0.09701007	     25.32240919	     11.71672165	      0.00000000	     -0.23149491	      0.23353670	     -0.61409712	     -0.42990919	      0.31060381	     -0.65247819	     -0.38032298	      0.56782113	     -0.65247819	     -0.26457553	      0.56782113	     -0.53733498	     -0.21496617	      0.47622803	     -0.49895391	     -0.13227619	      0.36174834	     -0.46057284	     -1.65354497	      2.64181382	     -3.41542397	      0.00000000	      0.00000000	      2.71883154	     -0.27406163	     -1.82227800	    -30.62556575	    -87.57511639	    -33.90231420	      6.41418654	     71.26651477	     -3.88548739	      8.46104892	   -130.45836819	    -85.10636046	     35.93695702	      1.19446866	     67.95741833	    -10.42125652	      5.01795174
      0.10169492	     -2.04890665	     -5.10275207	     75.96827627	      0.26149347	      0.46701822	      0.85367030	     -7.57763461	      2.42613275	      5.06556895	      1.45310454	      0.02536146	     16.35180101	     -7.15957840	      0.00000000	     -6.15924343	     -1.39731136	     -8.11542118	      5.47828163	      0.09561405	     25.25336683	     11.28861470	      0.00000000	     -0.23679543	      0.24235829	     -0.58508185	     -0.43975280	      0.32233653	     -0.62164947	     -0.38903122	      0.58926995	     -0.62164947	     -0.27063350	      0.58926995	     -0.51194662	     -0.21988824	      0.49421703	     -0.47537900	     -0.13530491	      0.37541299	     -0.43881139	     -1.69140610	      2.74160545	     -3.25404973	      0.00000000	      0.00000000	      2.68200631	     -0.59431254	     -1.48706731	    -29.35143786	    -87.55845440	    -37.12913374	      6.06595825	     76.40459353	     -3.87239261	      8.08785281	   -130.96828292	    -85.26499518	     35.91319697	      1.17183054	     67.69761015	    -10.39446354	      4.87194918
      0.11864407	     -2.08099077	     -5.05567860	     76.12248046	      0.26098530	      0.46703968	      0.85379974	     -7.51451266	      2.34740237	      3.08381563	      1.64925834	      0.02878499	     16.99212083	     -4.48708932	      0.00000000	     -6.13901613	     -1.34477357	     -8.02048032	      5.53868577	      0.09666830	     25.25863242	     11.28135019	      0.00000000	     -0.24550683	      0.24165787	     -0.61900285	     -0.45593073	      0.32140496	     -0.65769053	     -0.40334317	      0.58756693	     -0.65769053	     -0.28058976	      0.58756693	     -0.54162750	     -0.22797764	      0.49278872	     -0.50293982	     -0.14028260	      0.37432803	     -0.46425214	     -1.75363073	      2.73368211	     -3.44270816	      0.00000000	      0.00000000	      2.70373475	     -0.63155317	     -1.36188692	    -29.90527968	    -87.65049025	    -36.60259826	      5.94735335	     75.82458182	     -3.82116800	      7.67461918	   -132.14326541	    -85.28246198	     36.85482298	      1.11025267	     64.91989299	    -10.21085752	      5.01030958
